<?xml version="1.0" standalone="no"?>
<!DOCTYPE svg PUBLIC "-//W3C//DTD SVG 20010904//EN"
 "http://www.w3.org/TR/2001/REC-SVG-20010904/DTD/svg10.dtd">
<svg version="1.0" xmlns="http://www.w3.org/2000/svg"
 width="951.000000pt" height="951.000000pt" viewBox="0 0 951.000000 951.000000"
 preserveAspectRatio="xMidYMid meet">
<metadata>
Created by potrace 1.11, written by Peter Selinger 2001-2013
</metadata>
<g transform="translate(0.000000,951.000000) scale(0.100000,-0.100000)"
fill="#000000" stroke="none">
<path d="M2685 8326 l-2050 -1184 0 -2387 0 -2387 2050 -1184 c1310 -757 2057
-1183 2070 -1181 11 2 940 535 2065 1185 l2045 1181 0 2386 0 2386 -2045 1181
c-1125 650 -2054 1183 -2065 1185 -13 2 -759 -423 -2070 -1181z m4026 -174
l1954 -1128 3 -1167 c2 -1124 1 -1167 -16 -1167 -23 0 -7730 767 -7790 775
l-42 6 0 773 0 773 1958 1131 c1076 622 1962 1131 1968 1131 7 1 891 -507
1965 -1127z m-2141 -3257 c2016 -201 3673 -366 3684 -367 10 -2 -60 -23 -155
-46 l-174 -44 -3530 352 c-1941 193 -3540 353 -3552 356 -21 4 -23 10 -23 65
l0 60 43 -6 c23 -3 1691 -170 3707 -370z m-480 -275 c1763 -175 3221 -320
3240 -322 26 -2 -7 -14 -135 -48 l-170 -44 -2840 283 c-1562 156 -2958 295
-3102 309 l-263 25 0 62 0 61 33 -3 c17 -2 1474 -147 3237 -323z m-453 -277
c1536 -153 2793 -280 2793 -284 0 -3 -71 -23 -157 -45 l-158 -40 -2630 263
c-1447 144 -2638 262 -2647 263 -15 0 -18 10 -18 60 0 41 4 60 13 60 6 1 1269
-124 2804 -277z m5031 20 l-3 -57 -2339 -600 -2340 -599 -80 28 c-45 15 -84
31 -88 34 -6 6 4798 1246 4840 1250 10 1 12 -14 10 -56z m-5521 -293 c1269
-126 2328 -232 2353 -236 43 -7 38 -9 -123 -49 l-168 -43 -2087 209 -2087 208
-105 38 c-102 37 -105 39 -108 71 -2 17 1 32 7 32 6 0 1049 -103 2318 -230z
m5521 -27 l-3 -58 -2078 -533 -2078 -532 -91 32 c-50 17 -85 34 -77 37 18 6
4311 1109 4322 1110 4 1 7 -25 5 -56z m-4590 -1183 l3233 -1154 -43 -26 c-24
-15 -61 -37 -84 -49 l-41 -23 -3162 1128 -3161 1129 0 79 c0 58 3 77 13 74 6
-2 1467 -523 3245 -1158z m-806 875 c747 -74 1361 -135 1365 -136 5 0 -68 -20
-160 -45 l-168 -44 -1007 100 -1007 100 -235 85 c-148 54 -218 83 -190 80 25
-3 656 -66 1402 -140z m5398 -12 l0 -58 -1818 -466 -1817 -466 -87 30 c-49 17
-85 33 -82 36 4 5 3769 976 3797 980 4 1 7 -25 7 -56z m-4805 -1158 c1661
-592 3026 -1081 3033 -1084 9 -5 -16 -24 -69 -55 l-82 -48 -2964 1058 -2963
1058 0 79 c0 59 3 78 13 75 6 -3 1371 -490 3032 -1083z m4805 837 l0 -57
-1557 -399 -1557 -399 -84 29 c-46 16 -85 31 -87 34 -3 4 3230 841 3278 849 4
0 7 -25 7 -57z m-5211 -8 c156 -15 280 -29 275 -31 -5 -1 -68 -18 -139 -36
l-130 -34 -190 69 c-135 49 -177 67 -145 64 25 -2 173 -17 329 -32z m219
-1133 l2841 -1015 -85 -48 -86 -49 -2736 977 c-1506 537 -2749 981 -2764 986
-27 10 -28 12 -28 90 0 44 4 78 9 76 5 -1 1287 -459 2849 -1017z m4990 764
c-2 -2 -585 -152 -1297 -334 l-1293 -332 -94 33 -93 34 1387 355 1387 356 3
-55 c2 -30 2 -56 0 -57z m-5149 -1079 c1427 -510 2596 -928 2597 -929 2 -1
-35 -24 -81 -50 l-84 -48 -2548 910 c-1401 500 -2556 912 -2565 916 -15 6 -18
20 -18 86 l0 78 53 -18 c28 -11 1220 -436 2646 -945z m5149 759 c-2 -2 -466
-122 -1033 -268 l-1030 -264 -87 30 c-49 17 -85 33 -82 36 3 3 506 134 1117
292 l1112 285 3 -54 c2 -30 2 -56 0 -57z m-5398 -1042 c1317 -470 2407 -860
2423 -867 27 -11 27 -11 -57 -59 l-84 -47 -2103 751 -2104 750 -262 151 c-226
129 -263 154 -263 174 0 22 2 23 28 13 15 -6 1105 -396 2422 -866z m5390 823
c0 -2 -75 -46 -167 -99 l-168 -95 -599 -153 -599 -153 -84 30 c-47 16 -86 31
-88 34 -3 5 1663 438 1693 439 6 1 12 -1 12 -3z m-1047 -607 c-70 -39 -73 -40
-114 -28 l-42 13 99 27 c135 36 140 35 57 -12z m-3788 -786 c808 -288 1475
-528 1483 -532 8 -5 -17 -23 -71 -54 l-83 -47 -1063 380 -1063 379 -352 202
c-193 111 -353 205 -356 207 -3 3 4 2 15 -2 11 -4 681 -244 1490 -533z m650
-603 c237 -84 433 -156 437 -159 8 -7 -145 -101 -162 -101 -9 0 -720 407 -730
418 -6 6 -53 23 455 -158z"/>
<path d="M4606 8461 c-88 -91 -86 -284 3 -391 l29 -35 25 24 c59 55 87 180 62
274 -13 52 -61 137 -84 151 -4 3 -20 -7 -35 -23z"/>
<path d="M5219 8362 c-81 -52 -129 -144 -129 -250 0 -92 15 -135 44 -126 56
16 147 117 166 182 13 47 13 163 0 196 -12 33 -26 33 -81 -2z"/>
<path d="M3980 8259 c-24 -97 9 -208 83 -282 45 -45 117 -81 132 -66 5 5 10
51 10 102 0 102 -18 151 -79 215 -25 28 -112 82 -130 82 -2 0 -9 -23 -16 -51z"/>
<path d="M5713 8024 c-93 -34 -178 -143 -190 -246 l-6 -51 51 6 c144 17 255
123 276 265 l6 42 -47 -1 c-27 0 -67 -7 -90 -15z"/>
<path d="M3498 7884 c-25 -24 11 -128 64 -189 53 -60 125 -96 205 -103 73 -6
75 -2 46 88 -22 68 -96 150 -161 178 -53 23 -143 38 -154 26z"/>
<path d="M4570 7775 c-315 -64 -574 -299 -668 -607 -61 -198 -44 -436 44 -626
108 -236 324 -415 582 -484 112 -29 305 -30 424 0 334 83 586 345 653 681 26
126 17 317 -20 431 -67 208 -195 376 -370 485 -188 118 -432 163 -645 120z"/>
<path d="M5982 7516 c-77 -25 -141 -77 -173 -138 l-19 -37 22 -12 c13 -7 60
-15 104 -17 73 -4 88 -1 140 22 32 15 67 35 78 44 27 24 76 93 76 107 0 34
-154 55 -228 31z"/>
<path d="M3238 7314 c-21 -9 -38 -22 -38 -28 0 -19 52 -83 90 -111 19 -14 59
-33 89 -42 91 -26 231 -4 239 38 4 24 -70 101 -124 129 -63 32 -198 39 -256
14z"/>
<path d="M6015 6951 c-41 -11 -109 -46 -124 -65 -11 -13 -8 -21 20 -47 97 -92
274 -104 380 -27 l41 30 -28 29 c-63 66 -200 104 -289 80z"/>
<path d="M3345 6751 c-49 -13 -97 -41 -137 -79 -21 -20 -38 -39 -38 -43 0 -4
28 -21 62 -38 73 -37 163 -42 242 -14 59 22 142 92 134 115 -17 43 -182 81
-263 59z"/>
<path d="M5793 6423 c-27 -5 -28 -12 -9 -58 35 -83 139 -162 239 -180 50 -10
127 3 134 21 19 50 -101 182 -189 209 -49 14 -125 18 -175 8z"/>
<path d="M3617 6246 c-58 -21 -114 -62 -147 -108 -33 -45 -58 -114 -46 -126 4
-4 40 -7 80 -7 90 1 167 35 225 101 38 44 76 128 65 145 -8 14 -134 10 -177
-5z"/>
<path d="M5480 5976 c0 -138 108 -267 244 -292 l39 -7 -5 74 c-6 86 -30 141
-86 197 -42 42 -98 72 -154 82 l-38 7 0 -61z"/>
<path d="M4055 5898 c-114 -58 -187 -190 -170 -305 l6 -41 37 10 c134 37 222
152 222 291 0 67 0 67 -27 67 -16 -1 -46 -10 -68 -22z"/>
<path d="M5040 5758 c-34 -78 -32 -178 4 -252 24 -48 105 -136 126 -136 21 0
50 102 50 173 0 108 -47 197 -131 251 l-26 17 -23 -53z"/>
<path d="M4543 5728 c-67 -70 -87 -120 -88 -214 0 -65 5 -91 24 -132 14 -29
29 -52 36 -52 20 0 94 85 115 133 32 72 30 182 -5 253 -15 30 -30 54 -34 54
-4 0 -25 -19 -48 -42z"/>
</g>
</svg>
